<svg width="256" height="256" viewBox="0 0 256 256" fill="none" xmlns="http://www.w3.org/2000/svg">
<path d="M226.808 59.8016L200.954 49.0938L226.808 38.386L222.206 27.3158L196.37 38.0236L207.078 12.1691L195.989 7.58521L185.3 33.4397L174.592 7.58521L163.504 12.1691L174.211 38.0236L148.375 27.3158L143.791 38.386L169.627 49.0938L143.791 59.8016L148.375 70.8717L174.211 60.1639L163.504 86.0185L174.592 90.6023L185.3 64.7659L195.989 90.6023L207.078 86.0003L196.37 60.1639L222.206 70.8717L226.808 59.8016Z" fill="#009FE3"/>
<path d="M59.524 131.93H76.718V86.0186H17.9248V101.491H59.524V131.93Z" fill="#009FE3"/>
<path d="M126.598 131.93H143.792V86.0186H84.999V101.491H126.598V131.93Z" fill="#009FE3"/>
<path d="M15.1709 155.683H126.597V179.327H143.791V140.21H15.1709V155.683Z" fill="#009FE3"/>
<path d="M56.7705 251.582H143.792V187.281H56.7705V251.582ZM73.9465 202.771H126.598V236.127H73.9465V202.771Z" fill="#009FE3"/>
</svg>
