<svg width="169" height="56" viewBox="0 0 169 56" fill="none" xmlns="http://www.w3.org/2000/svg">
<g clip-path="url(#clip0_39_161)">
<path d="M49.4371 42.5808C48.2823 42.1687 48.0635 41.8939 48.0635 41.4211C48.0635 40.9484 48.3958 40.5726 49.1859 40.5726C49.7653 40.5726 50.1502 40.7625 50.5716 41.11L50.9849 40.6049C50.4987 40.217 50.0044 39.9907 49.2264 39.9907C48.1486 39.9907 47.4193 40.5403 47.4193 41.4615C47.4193 42.2939 47.8407 42.698 49.0886 43.1425C50.1462 43.5223 50.4663 43.8253 50.4663 44.3587C50.4663 44.9689 49.9881 45.3487 49.2223 45.3487C48.6267 45.3487 48.1243 45.0739 47.6867 44.6577L47.2612 45.1345C47.715 45.5952 48.416 45.9346 49.2021 45.9346C50.4055 45.9346 51.1146 45.2315 51.1146 44.3304C51.1146 43.4294 50.7215 43.0455 49.4411 42.5848L49.4371 42.5808Z" fill="white"/>
<path d="M53.7321 41.4331C53.1689 41.4331 52.6584 41.5705 52.2775 41.7766L52.5125 42.2776C52.865 42.0716 53.2378 41.9463 53.6916 41.9463C54.3237 41.9463 54.6316 42.2574 54.6316 42.9039V43.4131C54.3764 43.2716 53.9833 43.1625 53.5498 43.1625C52.6948 43.1625 51.8926 43.5747 51.8926 44.5445C51.8926 45.587 52.6017 45.9264 53.2743 45.9264C53.8983 45.9264 54.3237 45.6355 54.6316 45.3082V45.8375H55.2475V42.8231C55.2475 41.821 54.6641 41.425 53.7321 41.425V41.4331ZM54.6276 44.7829C54.3642 45.1425 53.9428 45.4294 53.3837 45.4294C52.8529 45.4294 52.4963 45.1506 52.4963 44.5081C52.4963 43.9666 52.8772 43.6596 53.5133 43.6596C54.0401 43.6596 54.344 43.7565 54.6276 43.9101V44.7869V44.7829Z" fill="white"/>
<path d="M61.4629 43.3123V45.8417H62.0788V43.2113C62.0788 41.9506 61.5277 41.4333 60.6444 41.4333C59.9394 41.4333 59.5869 41.7606 59.3316 42.1728C59.125 41.7606 58.7562 41.4333 58.1444 41.4333C57.6339 41.4333 57.2692 41.6798 57.0464 42.0516V41.5263H56.4224V45.8458H57.0464V43.3163C57.0464 42.3587 57.4151 41.9667 58.0107 41.9667C58.6063 41.9667 58.9426 42.3263 58.9426 43.3163V45.8458H59.5626V43.3163C59.5626 42.3587 59.9394 41.9667 60.5269 41.9667C61.1509 41.9667 61.4589 42.3263 61.4589 43.3163L61.4629 43.3123Z" fill="white"/>
<path d="M64.5626 43.3283C63.8292 42.997 63.6104 42.8556 63.6104 42.4879C63.6104 42.1727 63.8697 41.9545 64.3276 41.9545C64.7854 41.9545 65.0691 42.0757 65.4054 42.3424L65.7498 41.8858C65.4216 41.6151 64.9597 41.4292 64.3681 41.4292C63.578 41.4292 63.0148 41.8737 63.0148 42.5283C63.0148 43.2192 63.3754 43.4819 64.2465 43.8536C65.0123 44.1809 65.2676 44.3789 65.2676 44.7345C65.2676 45.1547 64.988 45.4012 64.3924 45.4012C63.9629 45.4012 63.5577 45.2275 63.2133 44.9244L62.8486 45.3729C63.2619 45.7043 63.7806 45.9265 64.3762 45.9265C65.1258 45.9265 65.8592 45.5588 65.8592 44.7062C65.8592 43.9344 65.3811 43.696 64.5585 43.3243L64.5626 43.3283Z" fill="white"/>
<path d="M69.4739 44.0477C69.4739 44.9932 68.9998 45.3932 68.4042 45.3932C67.7073 45.3932 67.3791 44.977 67.3791 44.0477V41.5222H66.7632V44.1527C66.7632 45.3932 67.3669 45.9306 68.2786 45.9306C68.8256 45.9306 69.2267 45.6761 69.4739 45.3124V45.8417H70.0938V41.5222H69.4739V44.0477Z" fill="white"/>
<path d="M74.4695 45.8417V43.2113C74.4695 41.9667 73.8657 41.4333 72.95 41.4333C72.4071 41.4333 72.0019 41.6879 71.7588 42.0516V41.5263H71.1348V45.8458H71.7588V43.3163C71.7588 42.3708 72.2247 41.9667 72.8244 41.9667C73.5173 41.9667 73.8495 42.387 73.8495 43.3163V45.8458H74.4695V45.8417Z" fill="white"/>
<path d="M76.4184 46.9569L76.617 47.4256C78.2256 47.3771 78.809 46.7508 78.809 45.4497V41.5181H78.1891V42.003C77.8852 41.6555 77.5124 41.4292 76.9695 41.4292C76.0619 41.4292 75.3325 42.2171 75.3325 43.7486C75.3325 45.28 76.0213 45.9265 76.8844 45.9265C77.4719 45.9265 77.8852 45.6356 78.1891 45.3083V45.5305C78.1891 46.5366 77.8609 46.9165 76.4144 46.9528L76.4184 46.9569ZM77.0465 45.3931C76.3617 45.3931 75.9484 44.8274 75.9484 43.7405C75.9484 42.5808 76.3009 41.9626 77.0222 41.9626C77.5367 41.9626 77.9541 42.2495 78.1931 42.6091V44.7709C77.8893 45.1507 77.5084 45.3931 77.0465 45.3931Z" fill="white"/>
<path d="M85.6408 42.9202C85.6408 40.9443 84.5225 40.0796 83.0071 40.0796H81.4795V45.8416H82.8936C84.4374 45.8416 85.6408 45.0092 85.6408 42.9202ZM82.1237 40.6614H82.9584C84.2875 40.6614 84.9965 41.4696 84.9965 42.9404C84.9965 44.5971 84.2186 45.2557 82.9746 45.2557H82.1237V40.6614Z" fill="white"/>
<path d="M87.2899 42.0555V41.5221H86.6699V45.8416H87.2899V43.3041C87.2899 42.4798 87.6302 41.9989 88.2339 41.9989C88.5216 41.9989 88.708 42.0636 88.8823 42.1646L89.0362 41.5423C88.8904 41.4777 88.6837 41.4373 88.3596 41.4373C87.8936 41.4373 87.4843 41.7161 87.2899 42.0595V42.0555Z" fill="white"/>
<path d="M92.7397 45.4295L92.448 44.985C92.0509 45.2476 91.7551 45.3971 91.2486 45.3971C90.5436 45.3971 90.102 44.8112 90.0452 43.894H92.9302C92.9504 43.793 92.9585 43.7041 92.9585 43.5586C92.9585 42.3262 92.3427 41.4373 91.2122 41.4373C90.183 41.4373 89.4253 42.2898 89.4253 43.6596C89.4253 45.3608 90.3896 45.9345 91.1838 45.9345C91.8362 45.9345 92.217 45.7608 92.7397 45.4335V45.4295ZM91.2122 41.9666C91.9699 41.9666 92.3345 42.5525 92.3832 43.3889H90.0452C90.1182 42.4232 90.5679 41.9666 91.2122 41.9666Z" fill="white"/>
<path d="M95.0247 45.9305C95.6446 45.9305 96.0701 45.6396 96.374 45.3123V45.8416H96.9939V42.8273C96.9939 41.8252 96.4105 41.4292 95.4785 41.4292C94.9153 41.4292 94.4048 41.5666 94.0239 41.7727L94.2548 42.2737C94.6114 42.0676 94.9801 41.9424 95.4339 41.9424C96.0701 41.9424 96.374 42.2535 96.374 42.9V43.4091C96.1187 43.2677 95.7297 43.1586 95.2962 43.1586C94.4372 43.1586 93.6309 43.5708 93.6309 44.5405C93.6309 45.583 94.344 45.9225 95.0207 45.9225L95.0247 45.9305ZM95.2638 43.6556C95.7905 43.6556 96.0985 43.7526 96.378 43.9061V44.783C96.1147 45.1426 95.6933 45.4295 95.1341 45.4295C94.6074 45.4295 94.2467 45.1507 94.2467 44.5082C94.2467 43.9668 94.6317 43.6597 95.2638 43.6597V43.6556Z" fill="white"/>
<path d="M103.21 43.3123V45.8417H103.83V43.2113C103.83 41.9506 103.279 41.4333 102.395 41.4333C101.694 41.4333 101.338 41.7606 101.087 42.1728C100.88 41.7606 100.511 41.4333 99.8995 41.4333C99.3849 41.4333 99.0243 41.6798 98.8014 42.0516V41.5263H98.1855V45.8458H98.8014V43.3163C98.8014 42.3587 99.1742 41.9667 99.7698 41.9667C100.365 41.9667 100.706 42.3263 100.706 43.3163V45.8458H101.322V43.3163C101.322 42.3587 101.699 41.9667 102.29 41.9667C102.914 41.9667 103.222 42.3263 103.222 43.3163L103.21 43.3123Z" fill="white"/>
<path d="M49.4371 51.151C48.2783 50.7388 48.0676 50.4681 48.0676 49.9913C48.0676 49.5145 48.3998 49.1468 49.1899 49.1468C49.7693 49.1468 50.1583 49.3327 50.5757 49.6802L50.989 49.1791C50.5027 48.7953 50.0044 48.5649 49.2304 48.5649C48.1486 48.5649 47.4233 49.1064 47.4233 50.0358C47.4233 50.8681 47.8447 51.2682 49.0927 51.7126C50.1502 52.0965 50.4703 52.3955 50.4703 52.9329C50.4703 53.539 49.9922 53.9189 49.2223 53.9189C48.6267 53.9189 48.1243 53.6441 47.6867 53.2279L47.2612 53.7047C47.715 54.1653 48.416 54.5007 49.2021 54.5007C50.4055 54.5007 51.1105 53.8017 51.1105 52.8966C51.1105 51.9915 50.7175 51.6116 49.4411 51.151H49.4371Z" fill="white"/>
<path d="M53.74 50.5369C54.1776 50.5369 54.4653 50.6905 54.7773 50.9733L55.1501 50.5127C54.8097 50.2137 54.3599 49.9995 53.7805 49.9995C52.8729 49.9995 51.9126 50.6743 51.9126 52.2704C51.9126 53.7776 52.7838 54.4968 53.7359 54.4968C54.3437 54.4968 54.7651 54.2665 55.1298 53.8947L54.757 53.5028C54.4612 53.7897 54.1817 53.9594 53.7603 53.9594C52.9944 53.9594 52.5366 53.2765 52.5366 52.2138C52.5366 51.1511 53.0593 50.5288 53.7359 50.5288L53.74 50.5369Z" fill="white"/>
<path d="M57.7962 50.0035C57.2532 50.0035 56.844 50.258 56.5968 50.6217V48.5933H55.981V54.4199H56.5968V51.8905C56.5968 50.9449 57.0709 50.5409 57.6706 50.5409C58.3675 50.5409 58.6957 50.9571 58.6957 51.8905V54.4199H59.3157V51.7814C59.3157 50.5409 58.7119 50.0035 57.7962 50.0035Z" fill="white"/>
<path d="M62.0788 50.0034C61.0253 50.0034 60.1865 50.7914 60.1865 52.2581C60.1865 53.7249 60.9929 54.5048 62.0463 54.5048C63.0998 54.5048 63.9467 53.6926 63.9467 52.2258C63.9467 50.759 63.1322 50.0034 62.0788 50.0034ZM62.0666 53.9673C61.3129 53.9673 60.8065 53.3774 60.8065 52.242C60.8065 51.1065 61.3129 50.5408 62.0666 50.5408C62.8202 50.5408 63.3267 51.1065 63.3267 52.242C63.3267 53.3774 62.8162 53.9673 62.0666 53.9673Z" fill="white"/>
<path d="M65.4988 48.5891H64.8789V54.4158H65.4988V48.5891Z" fill="white"/>
<path d="M68.3311 50.0034C67.7679 50.0034 67.2574 50.1448 66.8805 50.3509L67.1115 50.856C67.4681 50.6499 67.8408 50.5247 68.2946 50.5247C68.9267 50.5247 69.2347 50.8398 69.2347 51.4783V51.9914C68.9794 51.85 68.5904 51.7409 68.1569 51.7409C67.2979 51.7409 66.4956 52.1531 66.4956 53.1269C66.4956 54.1694 67.2047 54.5048 67.8813 54.5048C68.5013 54.5048 68.9267 54.2179 69.2347 53.8906V54.4199H69.8546V51.4096C69.8546 50.3994 69.2671 50.0075 68.3352 50.0075L68.3311 50.0034ZM69.2306 53.3532C68.9713 53.7087 68.5418 53.9997 67.9867 53.9997C67.46 53.9997 67.1034 53.7209 67.1034 53.0784C67.1034 52.5329 67.4843 52.2339 68.1204 52.2339C68.6472 52.2339 68.951 52.3228 69.2306 52.4804V53.3532Z" fill="white"/>
<path d="M71.6497 50.6298V50.0883H71.0298V54.4118H71.6497V51.8743C71.6497 51.054 71.982 50.5651 72.5898 50.5651C72.8815 50.5651 73.0679 50.6298 73.2421 50.7308L73.4001 50.1045C73.2502 50.0398 73.0476 49.9954 72.7235 49.9954C72.2616 49.9954 71.8442 50.2742 71.6538 50.6257L71.6497 50.6298Z" fill="white"/>
<path d="M75.7741 51.9025C75.0408 51.5712 74.8179 51.4217 74.8179 51.0621C74.8179 50.7509 75.0813 50.5287 75.5351 50.5287C75.9889 50.5287 76.2806 50.654 76.6169 50.9166L76.9614 50.4641C76.6291 50.1933 76.1712 50.0034 75.5756 50.0034C74.7895 50.0034 74.2182 50.4479 74.2182 51.1065C74.2182 51.7652 74.5829 52.0601 75.45 52.4278C76.2158 52.7551 76.4711 52.9572 76.4711 53.3087C76.4711 53.733 76.1915 53.9754 75.5999 53.9754C75.1664 53.9754 74.7652 53.8017 74.4168 53.4986L74.0562 53.9512C74.4694 54.2825 74.9881 54.5007 75.5837 54.5007C76.3333 54.5007 77.0667 54.129 77.0667 53.2845C77.0667 52.5086 76.5886 52.2743 75.7701 51.9025H75.7741Z" fill="white"/>
<path d="M79.895 50.0035C79.3439 50.0035 78.9428 50.258 78.6956 50.6217V48.5933H78.0757V54.4199H78.6956V51.8905C78.6956 50.9449 79.1656 50.5409 79.7694 50.5409C80.4622 50.5409 80.7904 50.9571 80.7904 51.8905V54.4199H81.4104V51.7814C81.4104 50.5409 80.8107 50.0035 79.895 50.0035Z" fill="white"/>
<path d="M83.2502 50.0884H82.6343V54.4119H83.2502V50.0884Z" fill="white"/>
<path d="M82.9542 48.4397C82.7029 48.4397 82.5044 48.6377 82.5044 48.8882C82.5044 49.1387 82.7029 49.3246 82.9542 49.3246C83.1851 49.3246 83.3837 49.1226 83.3837 48.8882C83.3837 48.6377 83.1851 48.4397 82.9542 48.4397Z" fill="white"/>
<path d="M86.4227 50.0034C85.8392 50.0034 85.4259 50.2943 85.118 50.6216V50.0923H84.498V56.0039H85.118V53.931C85.4219 54.2744 85.7947 54.5048 86.3417 54.5048C87.2452 54.5048 87.9746 53.7128 87.9746 52.1854C87.9746 50.658 87.2857 50.0034 86.4227 50.0034ZM86.289 53.9673C85.7784 53.9673 85.3571 53.6804 85.118 53.3168V51.1591C85.4219 50.7833 85.8028 50.5368 86.2647 50.5368C86.9535 50.5368 87.3668 51.1025 87.3668 52.1894C87.3668 53.3491 87.0102 53.9633 86.293 53.9633L86.289 53.9673Z" fill="white"/>
<path d="M91.2527 49.2357H93.9998V48.6538H90.6084V54.4158H91.2527V51.7288H92.8369V51.1469H91.2527V49.2357Z" fill="white"/>
<path d="M95.8797 50.0034C94.8262 50.0034 93.9834 50.7914 93.9834 52.2581C93.9834 53.7249 94.7938 54.5048 95.8473 54.5048C96.9008 54.5048 97.7476 53.6926 97.7476 52.2258C97.7476 50.759 96.9413 50.0034 95.8797 50.0034ZM95.8675 53.9673C95.1139 53.9673 94.6155 53.3774 94.6155 52.242C94.6155 51.1065 95.1179 50.5408 95.8675 50.5408C96.6171 50.5408 97.1317 51.1065 97.1317 52.242C97.1317 53.3774 96.6212 53.9673 95.8675 53.9673Z" fill="white"/>
<path d="M101.163 52.6179C101.163 53.5634 100.697 53.9674 100.094 53.9674C99.4008 53.9674 99.0685 53.5513 99.0685 52.6179V50.0884H98.4526V52.7229C98.4526 53.9634 99.0564 54.5008 99.9721 54.5008C100.511 54.5008 100.916 54.2503 101.163 53.8866V54.416H101.787V50.0924H101.163V52.6219V52.6179Z" fill="white"/>
<path d="M104.64 50.0036C104.097 50.0036 103.692 50.2581 103.445 50.6218V50.0924H102.825V54.416H103.445V51.8865C103.445 50.941 103.915 50.5369 104.518 50.5369C105.211 50.5369 105.539 50.9531 105.539 51.8865V54.416H106.159V51.7774C106.159 50.5369 105.556 49.9995 104.64 49.9995V50.0036Z" fill="white"/>
<path d="M109.883 50.5812C109.575 50.2337 109.206 49.9993 108.659 49.9993C107.752 49.9993 107.026 50.7873 107.026 52.3227C107.026 53.8582 107.711 54.5007 108.578 54.5007C109.166 54.5007 109.575 54.2138 109.879 53.8865V54.4158H110.499V48.5891H109.879V50.5812H109.883ZM109.883 53.345C109.575 53.7208 109.198 53.9673 108.736 53.9673C108.051 53.9673 107.638 53.4016 107.638 52.3146C107.638 51.1509 107.991 50.5367 108.712 50.5367C109.222 50.5367 109.64 50.8236 109.883 51.1873V53.341V53.345Z" fill="white"/>
<path d="M113.124 50.0034C112.565 50.0034 112.055 50.1448 111.674 50.3509L111.901 50.856C112.257 50.6499 112.63 50.5247 113.084 50.5247C113.716 50.5247 114.02 50.8398 114.02 51.4783V51.9914C113.765 51.85 113.376 51.7409 112.938 51.7409C112.083 51.7409 111.281 52.1531 111.281 53.1269C111.281 54.1694 111.994 54.5048 112.671 54.5048C113.29 54.5048 113.716 54.2179 114.02 53.8906V54.4199H114.64V51.4096C114.64 50.3994 114.056 50.0075 113.12 50.0075L113.124 50.0034ZM114.024 53.3532C113.761 53.7087 113.343 53.9997 112.776 53.9997C112.253 53.9997 111.901 53.7209 111.901 53.0784C111.901 52.5329 112.278 52.2339 112.914 52.2339C113.44 52.2339 113.748 52.3228 114.024 52.4804V53.3532Z" fill="white"/>
<path d="M116.617 48.5891H115.993V50.0882H115.458V50.6095H115.993V53.5228C115.993 54.238 116.285 54.4966 116.824 54.4966C117.148 54.4966 117.379 54.4481 117.618 54.3511L117.663 53.8178C117.464 53.8986 117.302 53.939 117.051 53.939C116.723 53.939 116.617 53.8057 116.617 53.4218V50.6095H117.691V50.0882H116.617V48.5891Z" fill="white"/>
<path d="M119.097 48.4397C118.842 48.4397 118.639 48.6377 118.639 48.8882C118.639 49.1387 118.842 49.3246 119.097 49.3246C119.328 49.3246 119.522 49.1226 119.522 48.8882C119.522 48.6377 119.324 48.4397 119.097 48.4397Z" fill="white"/>
<path d="M119.393 50.0884H118.773V54.4119H119.393V50.0884Z" fill="white"/>
<path d="M122.221 50.0034C121.168 50.0034 120.325 50.7914 120.325 52.2581C120.325 53.7249 121.131 54.5048 122.189 54.5048C123.246 54.5048 124.085 53.6926 124.085 52.2258C124.085 50.759 123.274 50.0034 122.221 50.0034ZM122.205 53.9673C121.455 53.9673 120.949 53.3774 120.949 52.242C120.949 51.1065 121.455 50.5408 122.205 50.5408C122.954 50.5408 123.469 51.1065 123.469 52.242C123.469 53.3774 122.958 53.9673 122.205 53.9673Z" fill="white"/>
<path d="M126.796 50.0036C126.253 50.0036 125.848 50.2581 125.597 50.6218V50.0924H124.977V54.416H125.597V51.8865C125.597 50.941 126.067 50.5369 126.67 50.5369C127.363 50.5369 127.695 50.9531 127.695 51.8865V54.416H128.311V51.7774C128.311 50.5369 127.708 49.9995 126.796 49.9995V50.0036Z" fill="white"/>
<path d="M71.0982 28.7373C68.6103 28.7413 66.5601 30.6809 66.5601 33.1134C66.5601 35.5459 68.6103 37.4652 71.0982 37.4733C73.6103 37.4652 75.6403 35.5216 75.6403 33.1134C75.6403 30.7051 73.6103 28.7413 71.0982 28.7373ZM71.0374 35.4772C69.7367 35.4772 68.7562 34.4185 68.7562 33.1134C68.7562 31.8082 69.8056 30.7294 71.1022 30.7294C72.3988 30.7294 73.4118 31.788 73.4118 33.1134C73.4118 34.4387 72.3502 35.4772 71.0414 35.4772H71.0374Z" fill="white"/>
<path d="M50.2757 25.7271C50.9686 26.41 51.7627 27.008 52.5448 27.3919L52.6258 27.4363L53.967 25.8564L53.8373 25.7837C52.565 25.0968 51.5683 24.228 50.9159 23.133C50.2676 22.0541 49.9354 20.8015 49.9354 19.3024V17.8962H47.5366V19.1529C47.5366 20.7773 47.1679 22.0541 46.475 23.1734C45.7011 24.4139 44.5544 25.4119 43.0877 26.3373L42.958 26.4181L44.4126 27.9212L44.4937 27.8768C45.3608 27.408 46.2806 26.6848 47.0788 25.8766C47.7716 25.1695 48.3713 24.4139 48.736 23.6987C49.0885 24.4018 49.6274 25.117 50.2757 25.7311V25.7271Z" fill="white"/>
<path d="M47.6782 36.4388H57.7188V29.5979H47.6782V36.4388ZM49.9351 31.5294H55.4619V34.5073H49.9351V31.5294Z" fill="white"/>
<path d="M81.1553 36.4388H92.5087V29.5979H81.1553V36.4388ZM83.3879 31.5294H90.2801V34.5073H83.3879V31.5294Z" fill="white"/>
<path d="M57.7594 17.4922H55.5269V28.8142H57.7594V23.8038H60.3729V21.7915H57.7594V17.4922Z" fill="white"/>
<path d="M104.048 26.3049C104.782 26.9392 105.62 27.4726 106.411 27.8161L106.492 27.8524L107.699 26.224L107.569 26.1594C106.419 25.5735 105.394 24.8462 104.656 23.9572C103.906 23.0521 103.461 21.9611 103.461 20.6479V20.264H106.783V18.3164H97.7638V20.264H101.082V20.7327C101.082 21.9288 100.685 23.044 100.025 24.0097C99.2509 25.1694 98.1204 26.1028 97.0223 26.7089L96.8765 26.7857L98.3595 28.3171L98.4405 28.2767C99.2387 27.8242 100.122 27.1413 100.876 26.3736C101.479 25.7432 102.022 25.0765 102.355 24.4098C102.756 25.0563 103.372 25.7028 104.052 26.3049H104.048Z" fill="white"/>
<path d="M120.195 31.5738H128.311V36.4347H130.564V29.6423H120.195V31.5738Z" fill="white"/>
<path d="M125.795 23.7875C125.795 22.7167 125.313 21.7308 124.6 20.9792H126.828V19.0518H122.574V16.9304H120.155V19.0518H115.799V20.9792H118.076C117.379 21.7308 116.897 22.7086 116.897 23.7875C116.897 26.1755 118.87 28.1151 121.338 28.1231C123.805 28.1151 125.791 26.1755 125.795 23.7875ZM119.048 23.6986C119.048 22.3773 120.167 21.258 121.338 21.258C122.509 21.258 123.623 22.3813 123.627 23.6986C123.627 24.9997 122.509 26.123 121.338 26.127C120.163 26.123 119.052 24.9997 119.048 23.6986Z" fill="white"/>
<path d="M130.564 17.4922H128.335V28.8546H130.564V24.519H133.186V22.5067H130.564V17.4922Z" fill="white"/>
<path d="M111.654 17.4922H109.425V28.8546H111.654V23.8038H114.271V21.7915H111.654V17.4922Z" fill="white"/>
<path d="M73.8253 20.8621H70.3164V22.8542H73.8253V29.2142H76.0579V17.4922H73.8253V20.8621Z" fill="white"/>
<path d="M68.1567 26.0221C68.8536 26.7009 69.668 27.2989 70.446 27.703L70.5311 27.7515L71.8722 26.1716L71.7426 26.0989C70.4703 25.4321 69.4938 24.5674 68.8374 23.4886C68.1729 22.4178 67.8406 21.1167 67.8406 19.6176V17.8962H65.4379V19.4721C65.4379 21.0965 65.0732 22.3693 64.3965 23.4684C63.6267 24.7291 62.4557 25.7352 60.9889 26.6524L60.8633 26.7332L62.326 28.2404L62.3989 28.1919C63.262 27.7192 64.1615 27.0363 64.9597 26.2564C65.681 25.5412 66.2806 24.7614 66.6453 24.0139C66.9897 24.6967 67.5165 25.3917 68.1567 26.0261V26.0221Z" fill="white"/>
<path d="M106.868 28.7373C104.38 28.7413 102.33 30.6809 102.326 33.1134C102.33 35.5216 104.376 37.4652 106.868 37.4733C109.376 37.4652 111.41 35.5216 111.41 33.1134C111.41 30.7051 109.376 28.7413 106.868 28.7373ZM106.804 35.4772C105.507 35.4772 104.518 34.4185 104.518 33.1134C104.518 31.8082 105.564 30.7294 106.868 30.7294C108.173 30.7294 109.174 31.788 109.178 33.1134C109.178 34.4145 108.112 35.4772 106.804 35.4772Z" fill="white"/>
<path d="M83.8741 23.9854H86.1067V18.2031H80.0815V20.1265H83.8741V23.9854Z" fill="white"/>
<path d="M90.5756 23.9854H92.8123V18.2031H86.7871V20.1265H90.5756V23.9854Z" fill="white"/>
<path d="M147.485 22.6117H145.609V17.8074H143.498V35.9501H145.609V24.7937H147.485V36.435H149.673V17.4922H147.485V22.6117Z" fill="white"/>
<path d="M140.402 25.121C139.899 24.0259 139.692 22.8016 139.692 21.2985V20.5833H142.225V18.5427H134.867V20.5833H137.48V21.3389C137.48 22.7612 137.294 23.9249 136.844 25.0038C136.321 26.2443 135.442 27.3595 134.04 28.5556L133.943 28.6445L135.329 30.0143L135.414 29.9496C136.111 29.4364 136.84 28.693 137.448 27.9252C137.962 27.2787 138.396 26.608 138.667 26.018C138.947 26.5918 139.385 27.2504 139.895 27.8646C140.487 28.5839 141.155 29.2667 141.795 29.6748L141.881 29.7314L143.047 28.3414L142.954 28.2566C141.698 27.1656 140.92 26.1918 140.41 25.1169L140.402 25.121Z" fill="white"/>
<path d="M78.2134 26.6765H85.6243V28.8342H88.0432V26.6765H95.5716V24.741H78.2134V26.6765Z" fill="white"/>
<path d="M162.383 26.0584H154.839V20.3327H160.584V18.3164H152.578V28.0141H162.383V26.0584Z" fill="white"/>
<path d="M158.117 30.3979H155.86V36.4347H166.415V34.4467H158.117V30.3979Z" fill="white"/>
<path d="M166.362 22.7369V17.488H164.134V31.4648H166.362V24.7492H169V22.7369H166.362Z" fill="white"/>
<path d="M47.3299 11.6453L41.5479 9.25723L47.3299 6.86918L46.3007 4.40032L40.5227 6.78837L42.9174 1.0223L40.4376 0L38.047 5.76607L35.6524 0L33.1726 1.0223L35.5673 6.78837L29.7893 4.40032L28.7642 6.86918L34.5421 9.25723L28.7642 11.6453L29.7893 14.1142L35.5673 11.7261L33.1726 17.4922L35.6524 18.5145L38.047 12.7524L40.4376 18.5145L42.9174 17.4881L40.5227 11.7261L46.3007 14.1142L47.3299 11.6453Z" fill="white"/>
<path d="M9.91885 27.7313H13.7641V17.4922H0.615723V20.9429H9.91885V27.7313Z" fill="white"/>
<path d="M24.9188 27.7313H28.7641V17.4922H15.6157V20.9429H24.9188V27.7313Z" fill="white"/>
<path d="M0 33.0286H24.9191V38.3017H28.7643V29.5779H0V33.0286Z" fill="white"/>
<path d="M9.30322 54.4161H28.7644V40.0757H9.30322V54.4161ZM13.1444 43.5305H24.9192V50.9694H13.1444V43.5305Z" fill="white"/>
</g>
<defs>
<clipPath id="clip0_39_161">
<rect width="169" height="56" fill="white"/>
</clipPath>
</defs>
</svg>
