<svg width="132" height="44" viewBox="0 0 132 44" fill="none" xmlns="http://www.w3.org/2000/svg">
<path d="M105.079 10.6939C105.079 11.066 105.133 11.4515 105.282 11.8168C105.938 13.4401 107.609 14.4412 109.733 13.5957C110.24 13.3928 124.289 7.73128 124.289 7.73128C124.289 7.73128 118.756 21.7599 118.546 22.2807C117.741 24.2896 118.709 26.1091 120.352 26.7179C120.718 26.8532 121.096 26.9208 121.468 26.9141C122.814 26.9073 123.998 26.1159 124.58 24.5331C124.668 24.2964 131.587 5.29623 131.736 4.84304C131.824 4.57248 131.986 3.93666 131.986 3.497C131.986 2.5568 131.641 1.67071 130.972 1.00108C130.316 0.338201 129.436 0 128.51 0C128.057 0 127.691 0.0811683 127.137 0.257033C126.805 0.365258 108.968 7.00077 107.447 7.56895C105.925 8.13713 105.079 9.35465 105.086 10.6939" fill="#ED1C24"/>
<path d="M71.6584 21.4082V21.0023H60.8427V23.7688H67.1265C65.4896 28.9501 59.6387 31.9939 59.6387 31.9939L61.2012 34.1786C61.2012 34.1786 71.6584 29.8632 71.6584 21.4014V21.4082Z" fill="white"/>
<path d="M68.2424 39.7793V34.4019H64.4072V40.4624C64.4072 42.3564 65.9156 43.7227 67.9854 43.7227H79.8698V40.963H69.5817C68.6483 40.963 68.256 40.5909 68.2357 39.7793H68.2424Z" fill="white"/>
<path d="M71.2256 26.1025V28.869H75.7913V35.5383H79.6265V20.7115H75.7913V26.1025H71.2256Z" fill="white"/>
<path d="M104.274 31.8248H108.109V20.5966H104.274V24.0936H100.276V26.8262H104.274V31.8248Z" fill="white"/>
<path d="M18.2491 34.1923H3.65234V40.4625C3.65234 42.3564 5.16072 43.7228 7.23051 43.7228H19.1014V35.0445C19.1014 34.571 18.7158 34.1923 18.2491 34.1923ZM15.2662 40.9631H8.82682C7.89339 40.9631 7.49431 40.5978 7.48078 39.7793V36.9655H15.2662V40.9631Z" fill="white"/>
<path d="M19.3586 21.0429V20.9144H3.44289V23.6809H15.3476C15.3476 23.8635 15.3476 24.0935 15.3476 24.3167C15.3476 26.8871 15.2191 28.5781 15.1514 29.268H0V32.0345H23.3427V29.268H18.5673C18.7972 28.4022 19.3654 25.7237 19.3654 21.0429H19.3586Z" fill="white"/>
<path d="M43.1955 35.5856C46.3814 34.8889 48.7353 32.5012 48.7353 29.6738C48.7353 28.1519 48.0521 26.7585 46.9293 25.6831H51.0012V22.9166H43.1955V20.3057H39.3671V22.9166H31.5614V25.6831H35.6333C34.5105 26.7585 33.8273 28.1452 33.8273 29.6738C33.8273 32.508 36.1812 34.8889 39.3738 35.5856V38.3859H29.6201V41.1524H52.956V38.3859H43.2023V35.5856H43.1955ZM37.764 29.5859C37.764 27.6987 39.34 26.1565 41.2745 26.1565C43.209 26.1565 44.7851 27.692 44.7851 29.5859C44.7851 31.4798 43.209 33.0153 41.2745 33.0153C39.34 33.0153 37.764 31.4798 37.764 29.5859Z" fill="white"/>
<path d="M96.9423 31.5881H100.656C100.5 30.6885 99.1406 23.4239 95.6031 20.9077H91.3214L88.0273 31.676H91.8761L94.0676 23.9245C95.9142 26.089 96.8138 30.8779 96.9356 31.5881H96.9423Z" fill="white"/>
<path d="M97.7065 41.0577C96.7325 41.0577 96.5566 40.8075 96.5566 39.9822V39.6373H108.116V33.8202C108.116 33.3197 107.751 32.9274 107.23 32.9274H92.7891V35.5924H104.443V37.0196H92.8905V40.4625C92.8905 42.4579 94.3245 43.7228 96.4687 43.7228H108.367V41.0577H97.7065Z" fill="white"/>
</svg>
