<svg width="32" height="32" viewBox="0 0 32 32" fill="none" xmlns="http://www.w3.org/2000/svg">
<path d="M5.35481 24.9983C4.33792 24.9983 2.79561 24.5464 1.59684 22.224C0.110305 19.3439 1.60331 15.0945 3.84726 12.3857C6.44769 9.24615 10.3471 7.48559 13.1197 8.20178C18.302 9.53877 19.5581 12.9152 19.1386 14.8585C18.9543 15.7096 19.6802 16.1607 20.8078 16.7516C20.9073 16.8033 21.0035 16.8542 21.0972 16.9044C21.5556 17.1509 22.6557 17.8509 22.9766 19.0182C23.169 19.7182 23.0502 20.4336 22.6226 21.1457C21.874 22.393 20.2258 24.0056 18.0433 24.4413C16.1583 24.8188 14.2207 24.2853 12.2847 22.857C12.0155 22.6581 11.9581 22.279 12.157 22.009C12.3558 21.7399 12.7358 21.6825 13.0049 21.8813C14.6548 23.0979 16.2698 23.5594 17.8057 23.2523C19.7239 22.8683 21.0827 21.3551 21.5822 20.5217C21.836 20.0989 21.9088 19.7125 21.8061 19.3399C21.6695 18.8436 21.1894 18.3327 20.5209 17.973C20.4312 17.9253 20.339 17.876 20.2436 17.8267C19.175 17.2665 17.5599 16.4202 17.952 14.603C18.1743 13.5756 17.6844 10.6333 12.8158 9.37711C10.5128 8.78298 7.05879 10.4094 4.78008 13.1609C2.49814 15.9166 1.59199 19.5743 2.67355 21.6695C3.46653 23.2062 4.45917 23.9135 5.62237 23.7712C7.39749 23.5546 9.04407 21.5038 9.46764 19.7239C10.2865 16.2852 13.0494 11.3672 13.1666 11.1595C13.3315 10.8677 13.7009 10.765 13.9927 10.9299C14.2845 11.0948 14.3872 11.4642 14.2223 11.756C14.1948 11.8054 11.4254 16.7338 10.6462 20.0052C10.1305 22.1723 8.11853 24.6879 5.76868 24.9748C5.64339 24.9902 5.50436 24.9999 5.354 24.9999L5.35481 24.9983Z" fill="#363D6B"/>
<path d="M23.7185 23.8166C23.4137 23.8166 23.0968 23.8053 22.7678 23.7818C22.434 23.7584 22.1818 23.4682 22.2061 23.1344C22.2303 22.8005 22.5205 22.5483 22.8535 22.5726C26.7295 22.845 28.4586 21.2873 28.7851 19.7385C28.8409 19.4742 28.8134 19.2632 28.7011 19.0919C28.4982 18.7823 28.0447 18.6311 27.8863 18.5988C27.6914 18.5616 27.5217 18.4452 27.4409 18.2649C27.3608 18.0863 27.3665 17.8939 27.4643 17.7258C27.5039 17.6312 27.9089 16.5504 27.0326 14.2596C26.1208 11.8742 21.8884 11.1725 21.8455 11.1661C21.5788 11.1232 21.3718 10.909 21.3387 10.6407L20.9426 7.40811C18.9767 8.1534 16.5873 9.90426 16.5606 9.92366C16.2906 10.1217 15.9115 10.0643 15.7127 9.79514C15.5138 9.52596 15.5712 9.14604 15.8412 8.94719C15.9705 8.8518 19.0333 6.60785 21.3031 6.01938C21.4721 5.97573 21.6523 6.00645 21.7962 6.10507C21.9409 6.20368 22.0355 6.35888 22.0565 6.53268L22.4882 10.0562C23.7435 10.3303 27.1984 11.2995 28.1643 13.8263C28.8749 15.6855 28.8643 16.9255 28.7423 17.6191C29.064 17.7694 29.4407 18.0176 29.7058 18.4153C30.0017 18.859 30.093 19.4031 29.9693 19.9875C29.5684 21.8911 27.7108 23.8158 23.7168 23.8158L23.7185 23.8166Z" fill="#363D6B"/>
<path d="M25.2419 18.2327C25.7481 18.2327 26.1585 17.8223 26.1585 17.3161C26.1585 16.8098 25.7481 16.3994 25.2419 16.3994C24.7356 16.3994 24.3252 16.8098 24.3252 17.3161C24.3252 17.8223 24.7356 18.2327 25.2419 18.2327Z" fill="#363D6B"/>
<path d="M25.2415 18.3536C24.6692 18.3536 24.2036 17.888 24.2036 17.3157C24.2036 16.7434 24.6692 16.2778 25.2415 16.2778C25.8138 16.2778 26.2794 16.7434 26.2794 17.3157C26.2794 17.888 25.8138 18.3536 25.2415 18.3536ZM25.2415 16.5211C24.8034 16.5211 24.4461 16.8776 24.4461 17.3165C24.4461 17.7555 24.8026 18.112 25.2415 18.112C25.6805 18.112 26.0369 17.7555 26.0369 17.3165C26.0369 16.8776 25.6805 16.5211 25.2415 16.5211Z" fill="#363D6B"/>
<path d="M16.0392 17.8284C16.5455 17.8284 16.9559 17.418 16.9559 16.9118C16.9559 16.4055 16.5455 15.9951 16.0392 15.9951C15.533 15.9951 15.1226 16.4055 15.1226 16.9118C15.1226 17.418 15.533 17.8284 16.0392 17.8284Z" fill="#363D6B"/>
<path d="M16.0395 17.9498C15.4672 17.9498 15.0024 17.4842 15.0024 16.9119C15.0024 16.3396 15.468 15.874 16.0395 15.874C16.611 15.874 17.0774 16.3396 17.0774 16.9119C17.0774 17.4842 16.6118 17.9498 16.0395 17.9498ZM16.0395 16.1173C15.6014 16.1173 15.2449 16.4738 15.2449 16.9127C15.2449 17.3517 15.6014 17.7081 16.0395 17.7081C16.4777 17.7081 16.8349 17.3517 16.8349 16.9127C16.8349 16.4738 16.4785 16.1173 16.0395 16.1173Z" fill="#363D6B"/>
</svg>
