<svg width="139" height="139" viewBox="0 0 139 139" fill="none" xmlns="http://www.w3.org/2000/svg">
<path d="M129 68.6113C129 69.822 128.095 69.822 124.894 70.819C123.572 71.2463 122.876 73.3828 121.832 76.8012C119.536 83.9941 112.229 95.6024 97.0579 95.6024C81.8871 95.6024 73.8842 82.3561 73.3275 81.6439C72.562 80.5757 71.3094 79.5786 70.2655 79.5786C69.5696 79.5786 69.0825 79.8635 68.6649 80.1484C63.1673 83.9941 57.1825 88.3383 57.1825 98.3086C57.1825 104.861 62.5409 112.338 71.5877 112.338C79.3123 112.338 84.3924 104.861 85.993 99.6617C86.5497 97.8813 86.4105 97.1691 87.3152 97.1691C88.4982 97.1691 88.9158 99.8754 90.5164 99.8754C91.8386 99.8754 91.421 99.1632 93.1608 99.1632C94.7614 99.1632 95.179 101.371 96.5012 101.371C98.3801 101.371 100.885 99.7329 102.138 99.7329C102.556 99.7329 103.182 99.7329 103.182 100.16C103.182 100.872 101.999 101.513 100.885 102.51C98.5889 104.576 96.9187 105.786 95.1789 108.777C89.055 119.389 81.9567 121.312 78.338 122.451C77.0158 122.878 75.6936 123.519 75.1368 124.801C73.1187 129.43 71.9357 130 71.379 130C70.683 130 70.4743 129.217 70.3351 127.436C70.1959 125.513 69.152 123.306 65.5333 122.665C56.3474 120.884 45.0041 111.341 45.0041 96.3145C45.0041 82.7834 55.0251 77.5134 60.1053 72.3145C60.8012 71.6024 61.2883 70.819 61.2883 69.6083V69.181C61.2883 68.5401 61.1491 67.6855 60.314 66.6172C55.2339 60.0653 51.4064 55.7211 44.4474 55.7211C36.862 55.7211 30.1813 62.1306 30.1813 71.3887C30.1813 81.359 34.983 84.7774 39.7848 85.9881C41.3854 86.4154 41.9421 86.5579 41.9421 87.0564C41.9421 88.1246 40.8982 87.911 40.8982 89.549C40.8982 90.7596 41.8029 90.6172 41.8029 92.5401C41.8029 93.8932 40.6199 94.3205 40.6199 96.3858C40.6199 98.0237 41.3854 98.5935 41.3854 99.5193C41.3854 100.73 42.0813 100.588 42.0813 103.223C42.0813 103.935 42.3597 104.433 41.8029 104.433C41.2462 104.433 40.6199 103.507 39.7848 102.226C37.9059 99.3769 35.8877 97.5964 34.4263 96.457C22.8047 87.8398 22.3871 84.0653 19.4643 78.1543C18.7684 76.8012 18.5596 74.451 17.1678 73.8101C12.9228 71.6024 10 70.9614 10 67.4006C10 65.7626 11.8789 67.4006 14.8018 67.4006C16.4023 67.4006 18.2813 67.6855 19.186 64.2671C21.2041 57.003 29.555 45.3947 44.2386 45.3947C59.8269 45.3947 67.5515 58.6409 68.1082 59.3531C69.152 60.8487 70.1263 61.4184 71.1702 61.4184C71.8661 61.4184 72.3532 61.4184 73.5363 60.3501C83.4181 51.3769 84.1836 47.3887 84.1836 42.1899C84.1836 35.638 79.1035 28.0178 70.0567 28.0178C61.0099 28.0178 56.6953 35.3531 55.5123 40.8368C55.0947 42.6172 54.8164 43.543 54.0509 43.543C52.8678 43.543 52.8678 41.905 51.5456 41.905C49.3883 41.905 49.1795 42.8309 48.0661 42.8309C46.6047 42.8309 46.6047 40.1246 44.4474 40.1246C43.8906 40.1246 42.7076 40.8368 41.9421 40.8368C39.924 40.8368 39.7848 41.2641 38.8801 41.2641C37.8363 41.2641 36.7228 40.6944 36.7228 39.911C36.7228 39.1276 37.4187 38.5579 39.5064 37.4896C42.2901 35.9941 44.8649 34.9258 46.1871 31.8635C50.293 22.4629 59.4094 19.4718 62.8889 18.1187C64.2111 17.549 64.907 17.0504 65.5333 15.7685C68.317 10.5697 69.5696 10 70.3351 10C71.1006 10 71.031 11.3531 71.379 12.9911C71.7965 14.9139 71.7965 16.4095 74.8585 17.1929C83.5573 19.543 96.2924 27.7329 96.2924 42.6884C96.2924 57.6439 81.8871 67.1157 81.1912 67.6855C79.5906 68.8961 79.0339 69.8932 79.0339 70.819C79.0339 71.5312 79.4515 72.3145 79.869 73.1691C83.3485 80.2908 89.3333 84.9199 96.2924 84.9199C104.574 84.9199 110.976 77.0148 110.976 68.8249C110.976 60.635 105.618 55.7211 100.955 54.2255C99.2152 53.6558 98.4497 53.6558 98.4497 52.73C98.4497 51.6617 99.6328 52.0178 99.6328 50.3798C99.6328 49.1691 99.076 49.454 99.076 47.5312C99.076 46.178 100.677 45.7507 100.677 43.6855C100.677 42.0475 99.9111 41.4777 99.9111 40.5519C99.9111 39.3412 99.4936 39.4837 99.4936 36.8487C99.4936 36.1365 99.2152 35.638 99.7719 35.638C100.468 35.638 101.094 36.5638 101.929 37.8457C103.808 40.6944 105.27 42.9021 106.731 43.8279C117.239 50.6647 119.536 55.0089 121.971 61.1335C122.528 62.4866 123.015 64.8368 124.616 65.7626C125.938 66.6172 128.861 67.543 128.861 68.6113" fill="#231815"/>
</svg>
