<svg width="31" height="31" viewBox="0 0 31 31" fill="none" xmlns="http://www.w3.org/2000/svg">
<path d="M2 12.6939C2 13.066 2.0541 13.4515 2.20291 13.8168C2.85902 15.4401 4.52974 16.4412 6.65364 15.5957C7.16095 15.3928 21.2098 9.73128 21.2098 9.73128C21.2098 9.73128 15.6769 23.7599 15.4672 24.2807C14.6623 26.2896 15.6295 28.1091 17.2732 28.7179C17.6384 28.8532 18.0172 28.9208 18.3892 28.9141C19.7353 28.9073 20.919 28.1159 21.5007 26.5331C21.5886 26.2964 28.5082 7.29623 28.657 6.84304C28.745 6.57248 28.9073 5.93666 28.9073 5.497C28.9073 4.5568 28.5623 3.67071 27.8927 3.00108C27.2366 2.3382 26.3573 2 25.4306 2C24.9774 2 24.6121 2.08117 24.0575 2.25703C23.7261 2.36526 5.88932 9.00077 4.36741 9.56895C2.8455 10.1371 2 11.3547 2.00676 12.6939" fill="#ED1C24"/>
</svg>
