<svg width="189" height="41" viewBox="0 0 189 41" fill="none" xmlns="http://www.w3.org/2000/svg">
<g clip-path="url(#clip0_137_446)">
<path d="M9.3978 40.9991C7.20332 40.9991 3.87497 40.024 1.288 35.0123C-1.91998 28.7969 1.30196 19.6265 6.14446 13.781C11.7562 7.00568 20.1713 3.20634 26.1547 4.7519C37.3381 7.63716 40.049 14.9236 39.1436 19.1172C38.7459 20.954 40.3124 21.9274 42.7458 23.2026C42.9604 23.3142 43.168 23.4241 43.3703 23.5323C44.3594 24.0643 46.7336 25.575 47.4261 28.0939C47.8413 29.6046 47.5848 31.1484 46.662 32.6853C45.0467 35.3769 41.4898 38.857 36.7799 39.7972C32.7119 40.6119 28.5306 39.4606 24.3527 36.3782C23.7718 35.9491 23.6479 35.1309 24.0771 34.5483C24.5062 33.9674 25.3261 33.8435 25.907 34.2727C29.4673 36.898 32.9527 37.8941 36.2671 37.2312C40.4066 36.4026 43.3389 33.1371 44.417 31.3386C44.9647 30.4262 45.1217 29.5924 44.9002 28.7882C44.6054 27.7172 43.5692 26.6147 42.1266 25.8384C41.9329 25.7355 41.7341 25.6291 41.5282 25.5227C39.2221 24.3138 35.7368 22.4874 36.5828 18.5659C37.0625 16.3488 36.0054 9.9991 25.4988 7.28828C20.5289 6.00613 13.075 9.5159 8.15751 15.4539C3.23302 21.4006 1.27753 29.2941 3.61156 33.8156C5.32284 37.1318 7.46498 38.6581 9.9752 38.3511C13.8059 37.8836 17.3593 33.458 18.2734 29.6168C20.0405 22.1961 26.0029 11.583 26.2558 11.1347C26.6117 10.505 27.4089 10.2834 28.0386 10.6393C28.6684 10.9952 28.8899 11.7924 28.5341 12.4221C28.4747 12.5285 22.4984 23.1642 20.8168 30.2239C19.7038 34.9007 15.362 40.3293 10.2909 40.9486C10.0206 40.9817 9.72051 41.0026 9.39605 41.0026L9.3978 40.9991Z" fill="#363D6B"/>
<path d="M49.0284 38.4487C48.3707 38.4487 47.6869 38.4242 46.9769 38.3737C46.2565 38.3231 45.7122 37.6968 45.7646 36.9764C45.8169 36.2559 46.4431 35.7117 47.1618 35.764C55.5263 36.3519 59.2576 32.9904 59.9624 29.6481C60.0827 29.0777 60.0234 28.6224 59.781 28.2526C59.3431 27.5844 58.3645 27.2582 58.0226 27.1885C57.6022 27.1082 57.2358 26.857 57.0614 26.468C56.8887 26.0825 56.9009 25.6673 57.112 25.3045C57.1975 25.1004 58.0714 22.7681 56.1805 17.8244C54.2128 12.6766 45.079 11.1625 44.9865 11.1485C44.4109 11.0561 43.9643 10.5938 43.8928 10.0147L43.038 3.03874C38.7956 4.64709 33.6391 8.4255 33.5815 8.46736C32.9989 8.89475 32.1808 8.77089 31.7516 8.19C31.3225 7.60911 31.4464 6.78923 32.029 6.36011C32.3081 6.15427 38.9177 1.31176 43.816 0.0418275C44.1806 -0.052371 44.5696 0.0139168 44.8801 0.226736C45.1924 0.439555 45.3965 0.774483 45.4418 1.14953L46.3734 8.75345C49.0824 9.34481 56.5381 11.4364 58.6227 16.8894C60.156 20.9016 60.1333 23.5775 59.8699 25.0742C60.5642 25.3987 61.3771 25.9342 61.9493 26.7925C62.5877 27.7502 62.7848 28.9241 62.5179 30.1854C61.6527 34.2935 57.644 38.4469 49.0249 38.4469L49.0284 38.4487Z" fill="#363D6B"/>
<path d="M52.3141 26.3982C53.4066 26.3982 54.2923 25.5126 54.2923 24.4201C54.2923 23.3276 53.4066 22.4419 52.3141 22.4419C51.2216 22.4419 50.3359 23.3276 50.3359 24.4201C50.3359 25.5126 51.2216 26.3982 52.3141 26.3982Z" fill="#363D6B"/>
<path d="M52.3141 26.6598C51.079 26.6598 50.0742 25.6551 50.0742 24.42C50.0742 23.185 51.079 22.1802 52.3141 22.1802C53.5491 22.1802 54.5539 23.185 54.5539 24.42C54.5539 25.6551 53.5491 26.6598 52.3141 26.6598ZM52.3141 22.7052C51.3686 22.7052 50.5975 23.4745 50.5975 24.4218C50.5975 25.369 51.3668 26.1383 52.3141 26.1383C53.2613 26.1383 54.0306 25.369 54.0306 24.4218C54.0306 23.4745 53.2613 22.7052 52.3141 22.7052Z" fill="#363D6B"/>
<path d="M32.4547 25.5262C33.5472 25.5262 34.4329 24.6405 34.4329 23.548C34.4329 22.4555 33.5472 21.5698 32.4547 21.5698C31.3622 21.5698 30.4766 22.4555 30.4766 23.548C30.4766 24.6405 31.3622 25.5262 32.4547 25.5262Z" fill="#363D6B"/>
<path d="M32.4549 25.7878C31.2198 25.7878 30.2168 24.783 30.2168 23.5479C30.2168 22.3129 31.2216 21.3081 32.4549 21.3081C33.6882 21.3081 34.6947 22.3129 34.6947 23.5479C34.6947 24.783 33.6899 25.7878 32.4549 25.7878ZM32.4549 21.8332C31.5094 21.8332 30.7401 22.6025 30.7401 23.5497C30.7401 24.4969 31.5094 25.2662 32.4549 25.2662C33.4004 25.2662 34.1714 24.4969 34.1714 23.5497C34.1714 22.6025 33.4021 21.8332 32.4549 21.8332Z" fill="#363D6B"/>
<path d="M75.0779 26.5658V32.9364C75.0779 33.4283 74.7884 33.7179 74.3243 33.7179H72.4997C72.0357 33.7179 71.7461 33.4283 71.7461 32.9364V12.6087C71.7461 11.74 72.2101 11.248 73.0788 11.248H81.534C86.1096 11.248 88.8309 13.8542 88.8309 18.8921C88.8309 23.93 86.1096 26.5658 81.534 26.5658H75.0762H75.0779ZM75.0779 14.4334V23.3805H81.3613C84.0826 23.3805 85.5026 21.8175 85.5026 18.9217C85.5026 16.026 84.0844 14.4334 81.3613 14.4334H75.0779Z" fill="#363D6B"/>
<path d="M106.352 11.248C106.844 11.248 107.076 11.4801 107.076 11.972V13.7094C107.076 14.2013 106.844 14.4334 106.352 14.4334H95.0586V20.544H105.773C106.265 20.544 106.497 20.7761 106.497 21.268V23.0054C106.497 23.4973 106.265 23.7294 105.773 23.7294H95.0586V30.5343H106.931C107.423 30.5343 107.655 30.7663 107.655 31.2583V32.9957C107.655 33.4876 107.423 33.7196 106.931 33.7196H93.0612C92.1925 33.7196 91.7285 33.2277 91.7285 32.359V12.6104C91.7285 11.7417 92.1925 11.2498 93.0612 11.2498H106.352V11.248Z" fill="#363D6B"/>
<path d="M126.333 11.248C126.825 11.248 127.057 11.4801 127.057 11.972V13.7094C127.057 14.2013 126.825 14.4334 126.333 14.4334H120.195V32.9364C120.195 33.4283 119.905 33.7179 119.441 33.7179H117.616C117.152 33.7179 116.863 33.4283 116.863 32.9364V14.4334H110.695C110.203 14.4334 109.971 14.2013 109.971 13.7094V11.972C109.971 11.4801 110.203 11.248 110.695 11.248H126.332H126.333Z" fill="#363D6B"/>
<path d="M127.927 26.1543C127.674 23.9372 128.38 21.4671 129.288 19.6023C130.093 17.8387 131.656 15.5204 133.42 14.4109C134.983 13.4532 136.696 13.3015 138.107 14.158C138.913 14.6621 139.217 15.468 138.662 15.9722C138.158 16.4763 136.848 15.7698 135.89 15.9216C134.983 16.0734 134.025 16.8793 133.27 17.7864C132.211 19.0964 131.405 20.7606 130.952 22.4736C130.599 23.7837 130.448 24.6402 130.65 26.2032C130.852 27.7156 131.608 28.4203 133.272 28.1691C134.985 27.9668 136.447 27.6144 137.959 26.7073C137.959 26.7073 139.018 26.2032 139.37 26.6061C140.126 27.4627 139.117 28.2703 138.311 28.8233C137.202 29.6798 134.481 30.7387 133.069 30.7387C132.414 30.7387 131.608 30.7387 130.903 30.4875C128.686 29.6816 128.182 28.3209 127.929 26.1526L127.927 26.1543Z" fill="#14C898"/>
<path d="M143.098 26.5572C143.098 25.3483 143.399 23.583 143.754 22.3235C144.61 19.3999 146.224 14.8138 148.894 13.9067C150.407 13.4026 151.919 14.915 152.272 16.3768C152.423 15.8221 152.725 14.9656 152.927 14.5626C153.381 13.6555 153.683 13.1514 154.389 13.1514C155.145 13.1514 155.448 13.3031 155.598 13.9067C155.649 14.2085 155.649 14.8138 155.598 15.1156C155.345 16.5268 154.993 17.8875 154.942 19.3999C154.892 20.5093 155.244 21.8194 155.446 22.6759C155.649 23.4312 155.9 24.0365 156.202 24.6924C156.906 26.2554 158.168 27.7678 159.528 28.3714C160.032 28.5738 160.94 28.7238 160.94 29.4809C160.94 30.4385 160.083 30.3374 159.528 30.2362C156.807 29.8332 154.689 27.5655 153.43 25.0448C153.179 24.5407 152.774 23.4312 152.675 22.9288C152.221 24.2895 151.263 26.4072 150.709 27.3143C149.65 29.0273 147.937 31.3962 145.718 31.3962C145.264 31.3962 144.811 31.145 144.408 30.8415C143.098 29.8838 143.098 28.0696 143.098 26.5572ZM145.517 27.1119C145.517 27.4137 145.467 28.8755 145.819 28.825C146.675 28.7238 148.087 26.8084 148.793 25.6501C149.044 25.2472 150.053 23.433 150.255 22.9794C150.658 22.1229 151.112 20.9629 151.364 19.9546C151.162 17.938 150.457 16.2756 149.852 16.2756C148.793 16.2756 147.281 20.2075 146.827 21.3658C146.072 23.2812 145.568 25.146 145.517 27.1119Z" fill="#14C898"/>
<path d="M162.352 14.0584C162.101 13.5543 162.504 12.949 162.654 12.799C162.956 12.5966 163.31 12.396 163.814 12.546C164.217 12.6978 164.47 13.0502 164.772 13.4531C165.073 13.9067 165.83 15.3685 166.082 16.0244C166.687 15.0667 167.14 14.3602 167.493 13.9573C167.946 13.4025 168.299 12.9996 168.904 12.4448C170.064 11.386 171.425 10.6306 172.735 10.1771C173.44 9.97474 173.994 9.82472 174.549 9.77414C175.608 9.72355 175.91 10.833 175.304 11.1348C174.549 11.5377 173.893 11.9407 173.037 12.4954C171.727 13.3519 170.415 14.6132 169.206 16.1238C168.451 17.0309 167.744 18.191 167.442 19.501C167.29 20.3069 167.29 21.1146 167.442 21.8699C167.693 23.3823 167.946 25.5995 168.048 26.306C168.149 27.0107 168.349 28.019 168.451 28.7255C168.552 29.3308 168.349 30.0861 167.29 30.0861C166.383 30.0861 166.031 29.2296 165.626 28.019C165.325 27.0613 164.719 24.1377 164.618 23.0282C164.517 22.4229 164.316 20.7605 164.316 20.5075C164.164 19.1469 163.812 17.4321 163.46 16.4256C163.207 15.8203 162.804 15.065 162.35 14.0567L162.352 14.0584Z" fill="#14C898"/>
<path d="M175.76 27.9701C175.659 26.5083 175.76 25.0465 176.112 23.4346C176.315 22.4769 176.616 21.4687 176.918 20.6122C178.329 16.6296 180.346 13.0013 183.369 13.4042C184.983 13.706 185.789 15.1678 185.637 17.7897C185.434 20.1586 184.831 22.1246 183.42 23.234C182.462 23.9893 181.958 24.1917 181.101 24.1917C180.749 24.1917 179.69 24.0399 178.984 23.6876C178.682 24.5441 178.328 26.2082 178.581 27.4677C178.682 28.1725 179.285 28.3242 180.144 28.1725C181.907 27.8707 182.614 27.7695 184.679 27.2148C185.536 26.9636 186.493 26.7106 187.704 26.3583C188.51 26.3077 188.56 27.4171 188.459 27.7189C188.358 28.0207 188.257 28.0207 188.157 28.1219C186.746 28.8772 186.191 29.0796 184.428 29.6849C182.915 30.189 182.563 30.2902 181.605 30.4908C180.698 30.6931 179.992 30.8938 179.034 30.8938C177.068 30.8938 175.91 29.9361 175.758 27.9701H175.76ZM179.892 20.3086C179.791 20.6104 179.69 20.9645 179.54 21.5681C179.892 21.7704 181.154 22.1228 181.808 21.7704C183.168 21.0657 183.622 18.948 183.622 17.1844C183.622 16.5285 183.47 15.9249 182.816 15.9249C181.858 15.9249 181.103 17.2855 180.749 18.0915C180.597 18.3933 180.093 19.5533 179.892 20.3086Z" fill="#14C898"/>
</g>
<defs>
<clipPath id="clip0_137_446">
<rect width="188.5" height="40.999" fill="white"/>
</clipPath>
</defs>
</svg>
