<svg width="189" height="41" viewBox="0 0 189 41" fill="none" xmlns="http://www.w3.org/2000/svg">
<g clip-path="url(#clip0_137_467)">
<path d="M9.39801 41C7.20349 41 3.87506 40.0248 1.28803 35.013C-1.92003 28.7975 1.30199 19.6269 6.1446 13.7812C11.7565 7.00574 20.1718 3.20631 26.1553 4.7519C37.339 7.63724 40.0499 14.9238 39.1445 19.1175C38.7468 20.9544 40.3133 21.9278 42.7468 23.203C42.9614 23.3147 43.169 23.4246 43.3713 23.5327C44.3604 24.0648 46.7346 25.5755 47.4272 28.0945C47.8424 29.6052 47.5859 31.149 46.6631 32.6859C45.0477 35.3776 41.4908 38.8578 36.7808 39.7981C32.7127 40.6127 28.5312 39.4614 24.3533 36.3789C23.7723 35.9498 23.6485 35.1316 24.0776 34.549C24.5068 33.9681 25.3267 33.8442 25.9076 34.2734C29.468 36.8988 32.9534 37.8949 36.2679 37.232C40.4075 36.4034 43.3399 33.1377 44.418 31.3392C44.9658 30.4268 45.1228 29.593 44.9012 28.7888C44.6064 27.7177 43.5702 26.6152 42.1275 25.8389C41.9339 25.736 41.735 25.6296 41.5292 25.5232C39.223 24.3143 35.7376 22.4878 36.5836 18.5663C37.0634 16.3491 36.0062 9.99923 25.4994 7.28835C20.5294 6.00617 13.0753 9.51602 8.1577 15.4542C3.2331 21.401 1.27756 29.2947 3.61165 33.8163C5.32296 37.1325 7.46515 38.6589 9.97543 38.3519C13.8063 37.8844 17.3597 33.4587 18.2738 29.6174C20.041 22.1965 26.0035 11.5832 26.2565 11.1349C26.6123 10.5051 27.4095 10.2836 28.0393 10.6395C28.669 10.9953 28.8906 11.7925 28.5347 12.4223C28.4754 12.5287 22.4989 23.1647 20.8172 30.2245C19.7043 34.9014 15.3623 40.3301 10.2912 40.9494C10.0208 40.9826 9.72074 41.0035 9.39627 41.0035L9.39801 41Z" fill="white"/>
<path d="M49.0288 38.4496C48.3711 38.4496 47.6873 38.4251 46.9773 38.3746C46.2568 38.324 45.7126 37.6977 45.7649 36.9772C45.8172 36.2568 46.4435 35.7125 47.1622 35.7648C55.5269 36.3527 59.2583 32.9912 59.963 29.6488C60.0834 29.0783 60.0241 28.623 59.7816 28.2532C59.3437 27.5851 58.3651 27.2589 58.0232 27.1891C57.6028 27.1088 57.2364 26.8576 57.062 26.4686C56.8893 26.0831 56.9015 25.6679 57.1126 25.3051C57.1981 25.101 58.072 22.7686 56.181 17.8248C54.2133 12.6769 45.0793 11.1627 44.9869 11.1488C44.4112 11.0563 43.9646 10.5941 43.8931 10.0149L43.0383 3.03881C38.7958 4.6472 33.6392 8.42569 33.5816 8.46756C32.9989 8.89495 32.1808 8.7711 31.7517 8.19019C31.3225 7.60929 31.4464 6.78939 32.029 6.36026C32.3081 6.15441 38.9179 1.31179 43.8163 0.0418285C44.1809 -0.0523722 44.5699 0.0139172 44.8804 0.226741C45.1927 0.439565 45.3968 0.774501 45.4422 1.14956L46.3737 8.75365C49.0828 9.34502 56.5387 11.4366 58.6233 16.8898C60.1567 20.9021 60.134 23.5781 59.8706 25.0748C60.5649 25.3993 61.3778 25.9348 61.95 26.7931C62.5884 27.7508 62.7856 28.9248 62.5187 30.1861C61.6534 34.2943 57.6446 38.4478 49.0253 38.4478L49.0288 38.4496Z" fill="white"/>
<path d="M52.3161 26.3988C53.4086 26.3988 54.2943 25.5131 54.2943 24.4206C54.2943 23.3281 53.4086 22.4424 52.3161 22.4424C51.2236 22.4424 50.3379 23.3281 50.3379 24.4206C50.3379 25.5131 51.2236 26.3988 52.3161 26.3988Z" fill="white"/>
<path d="M52.3161 26.6604C51.081 26.6604 50.0762 25.6556 50.0762 24.4205C50.0762 23.1855 51.081 22.1807 52.3161 22.1807C53.5511 22.1807 54.5559 23.1855 54.5559 24.4205C54.5559 25.6556 53.5511 26.6604 52.3161 26.6604ZM52.3161 22.7057C51.3706 22.7057 50.5995 23.4751 50.5995 24.4223C50.5995 25.3695 51.3688 26.1388 52.3161 26.1388C53.2633 26.1388 54.0326 25.3695 54.0326 24.4223C54.0326 23.4751 53.2633 22.7057 52.3161 22.7057Z" fill="white"/>
<path d="M32.4567 25.5267C33.5493 25.5267 34.4349 24.6411 34.4349 23.5485C34.4349 22.456 33.5493 21.5703 32.4567 21.5703C31.3642 21.5703 30.4785 22.456 30.4785 23.5485C30.4785 24.6411 31.3642 25.5267 32.4567 25.5267Z" fill="white"/>
<path d="M32.4569 25.7884C31.2218 25.7884 30.2188 24.7836 30.2188 23.5485C30.2188 22.3134 31.2236 21.3086 32.4569 21.3086C33.6902 21.3086 34.6968 22.3134 34.6968 23.5485C34.6968 24.7836 33.692 25.7884 32.4569 25.7884ZM32.4569 21.8337C31.5114 21.8337 30.7421 22.603 30.7421 23.5502C30.7421 24.4975 31.5114 25.2668 32.4569 25.2668C33.4024 25.2668 34.1734 24.4975 34.1734 23.5502C34.1734 22.603 33.4041 21.8337 32.4569 21.8337Z" fill="white"/>
<path d="M75.08 26.5661V32.9369C75.08 33.4288 74.7904 33.7184 74.3264 33.7184H72.5016C72.0376 33.7184 71.748 33.4288 71.748 32.9369V12.6087C71.748 11.74 72.2121 11.248 73.0808 11.248H81.5362C86.1119 11.248 88.8333 13.8543 88.8333 18.8923C88.8333 23.9303 86.1119 26.5661 81.5362 26.5661H75.0782H75.08ZM75.08 14.4334V23.3808H81.3635C84.0849 23.3808 85.5048 21.8177 85.5048 18.9219C85.5048 16.0261 84.0866 14.4334 81.3635 14.4334H75.08Z" fill="white"/>
<path d="M106.354 11.248C106.846 11.248 107.078 11.4801 107.078 11.972V13.7095C107.078 14.2014 106.846 14.4334 106.354 14.4334H95.0606V20.5443H105.775C106.267 20.5443 106.499 20.7763 106.499 21.2682V23.0057C106.499 23.4976 106.267 23.7296 105.775 23.7296H95.0606V30.5348H106.933C107.425 30.5348 107.657 30.7668 107.657 31.2587V32.9962C107.657 33.4881 107.425 33.7202 106.933 33.7202H93.0632C92.1945 33.7202 91.7305 33.2282 91.7305 32.3595V12.6105C91.7305 11.7417 92.1945 11.2498 93.0632 11.2498H106.354V11.248Z" fill="white"/>
<path d="M126.336 11.248C126.828 11.248 127.06 11.4801 127.06 11.972V13.7095C127.06 14.2014 126.828 14.4334 126.336 14.4334H120.197V32.9369C120.197 33.4288 119.907 33.7184 119.443 33.7184H117.619C117.155 33.7184 116.865 33.4288 116.865 32.9369V14.4334H110.697C110.205 14.4334 109.973 14.2014 109.973 13.7095V11.972C109.973 11.4801 110.205 11.248 110.697 11.248H126.334H126.336Z" fill="white"/>
<path d="M127.929 26.1546C127.676 23.9374 128.382 21.4673 129.29 19.6025C130.095 17.8388 131.659 15.5204 133.422 14.4109C134.985 13.4532 136.698 13.3015 138.11 14.158C138.915 14.6621 139.219 15.4681 138.664 15.9722C138.16 16.4764 136.85 15.7699 135.892 15.9216C134.985 16.0734 134.027 16.8794 133.272 17.7865C132.213 19.0966 131.407 20.7608 130.954 22.4738C130.601 23.7839 130.45 24.6404 130.652 26.2035C130.854 27.7159 131.61 28.4207 133.274 28.1695C134.987 27.9671 136.449 27.6147 137.961 26.7076C137.961 26.7076 139.02 26.2035 139.373 26.6065C140.128 27.463 139.12 28.2707 138.314 28.8237C137.204 29.6802 134.483 30.7391 133.072 30.7391C132.416 30.7391 131.61 30.7391 130.905 30.4879C128.688 29.6819 128.184 28.3213 127.931 26.1529L127.929 26.1546Z" fill="white"/>
<path d="M143.1 26.5575C143.1 25.3486 143.401 23.5832 143.756 22.3237C144.612 19.4 146.226 14.8138 148.896 13.9067C150.409 13.4026 151.921 14.915 152.274 16.3769C152.425 15.8221 152.727 14.9656 152.93 14.5626C153.383 13.6555 153.685 13.1514 154.391 13.1514C155.147 13.1514 155.45 13.3031 155.6 13.9067C155.651 14.2085 155.651 14.8138 155.6 15.1156C155.347 16.5269 154.995 17.8876 154.944 19.4C154.894 20.5095 155.246 21.8196 155.449 22.6761C155.651 23.4315 155.902 24.0368 156.204 24.6927C156.909 26.2557 158.17 27.7682 159.531 28.3718C160.035 28.5741 160.942 28.7241 160.942 29.4812C160.942 30.4389 160.085 30.3378 159.531 30.2366C156.809 29.8336 154.692 27.5658 153.432 25.0451C153.181 24.5409 152.776 23.4315 152.677 22.9291C152.223 24.2897 151.265 26.4075 150.711 27.3146C149.652 29.0277 147.939 31.3967 145.72 31.3967C145.266 31.3967 144.813 31.1455 144.41 30.8419C143.1 29.8842 143.1 28.07 143.1 26.5575ZM145.519 27.1123C145.519 27.4141 145.469 28.8759 145.821 28.8253C146.677 28.7241 148.089 26.8087 148.795 25.6504C149.046 25.2474 150.055 23.4332 150.257 22.9796C150.66 22.1231 151.114 20.9631 151.367 19.9548C151.164 17.9382 150.459 16.2757 149.854 16.2757C148.795 16.2757 147.283 20.2077 146.829 21.366C146.074 23.2814 145.57 25.1463 145.519 27.1123Z" fill="white"/>
<path d="M162.356 14.0585C162.105 13.5544 162.508 12.9491 162.658 12.799C162.96 12.5967 163.314 12.3961 163.818 12.5461C164.221 12.6978 164.474 13.0502 164.776 13.4532C165.077 13.9068 165.834 15.3686 166.086 16.0245C166.691 15.0668 167.144 14.3603 167.497 13.9573C167.95 13.4026 168.303 12.9996 168.908 12.4449C170.068 11.386 171.429 10.6307 172.739 10.1771C173.444 9.97475 173.998 9.82473 174.553 9.77414C175.612 9.72355 175.914 10.833 175.309 11.1348C174.553 11.5378 173.897 11.9408 173.041 12.4955C171.731 13.352 170.419 14.6133 169.21 16.124C168.455 17.0311 167.748 18.1911 167.446 19.5012C167.295 20.3072 167.295 21.1149 167.446 21.8702C167.697 23.3827 167.95 25.5999 168.052 26.3064C168.153 27.0111 168.353 28.0194 168.455 28.7259C168.556 29.3313 168.353 30.0866 167.295 30.0866C166.387 30.0866 166.035 29.2301 165.63 28.0194C165.328 27.0617 164.723 24.138 164.622 23.0285C164.521 22.4232 164.32 20.7607 164.32 20.5078C164.168 19.1471 163.816 17.4323 163.464 16.4258C163.211 15.8204 162.808 15.0651 162.354 14.0568L162.356 14.0585Z" fill="white"/>
<path d="M175.764 27.9704C175.663 26.5086 175.764 25.0467 176.116 23.4349C176.319 22.4771 176.62 21.4689 176.922 20.6123C178.333 16.6297 180.35 13.0013 183.373 13.4042C184.987 13.706 185.793 15.1679 185.641 17.7898C185.439 20.1588 184.835 22.1248 183.424 23.2342C182.466 23.9896 181.962 24.1919 181.105 24.1919C180.753 24.1919 179.694 24.0402 178.988 23.6878C178.686 24.5443 178.332 26.2085 178.585 27.468C178.686 28.1728 179.289 28.3246 180.148 28.1728C181.911 27.871 182.618 27.7698 184.683 27.2151C185.54 26.9639 186.497 26.7109 187.708 26.3586C188.514 26.308 188.565 27.4175 188.463 27.7192C188.362 28.021 188.261 28.021 188.162 28.1222C186.75 28.8776 186.196 29.0799 184.432 29.6852C182.92 30.1894 182.567 30.2906 181.609 30.4912C180.702 30.6935 179.996 30.8942 179.038 30.8942C177.072 30.8942 175.914 29.9365 175.762 27.9704H175.764ZM179.896 20.3088C179.795 20.6106 179.694 20.9647 179.544 21.5683C179.896 21.7706 181.158 22.123 181.812 21.7706C183.172 21.0659 183.626 18.9481 183.626 17.1845C183.626 16.5285 183.474 15.925 182.82 15.925C181.862 15.925 181.107 17.2856 180.753 18.0916C180.601 18.3934 180.097 19.5534 179.896 20.3088Z" fill="white"/>
</g>
<defs>
<clipPath id="clip0_137_467">
<rect width="188.504" height="41" fill="white"/>
</clipPath>
</defs>
</svg>
